<?xml version="1.0"?>
<svg width="640" height="480" xmlns="http://www.w3.org/2000/svg" xmlns:svg="http://www.w3.org/2000/svg" xmlns:xlink="http://www.w3.org/1999/xlink">
 <!-- Created with SVG-edit - https://github.com/SVG-Edit/svgedit-->
 <defs>
  <symbol height="385.000000pt" id="svg_6" preserveAspectRatio="xMidYMid meet" viewBox="0 0 649.000000 385.000000" width="649.000000pt" xmlns="http://www.w3.org/2000/svg">
   <metadata>Created by potrace 1.16, written by Peter Selinger 2001-2019</metadata>
   <g fill="#000000" id="svg_10" transform="translate(0.000000,385.000000) scale(0.100000,-0.100000)">
    <path d="m430,3531c-126,-41 -211,-168 -197,-293c4,-27 18,-70 32,-97c19,-33 438,-459 1428,-1448c1541,-1540 1432,-1439 1557,-1437c117,1 16,-93 1549,1438c1146,1144 1418,1420 1437,1461c64,135 2,302 -136,364c-61,28 -159,28 -220,0c-35,-15 -327,-302 -1337,-1312l-1293,-1292l-1287,1287c-935,934 -1300,1292 -1333,1309c-48,24 -156,35 -200,20z" id="svg_11"/>
   </g>
  </symbol>
  <symbol height="385.000000pt" id="svg_8" preserveAspectRatio="xMidYMid meet" viewBox="0 0 649.000000 385.000000" width="649.000000pt" xmlns="http://www.w3.org/2000/svg">
   <metadata>Created by potrace 1.16, written by Peter Selinger 2001-2019</metadata>
   <g fill="#000000" id="svg_12" transform="translate(0.000000,385.000000) scale(0.100000,-0.100000)">
    <path d="m430,3531c-126,-41 -211,-168 -197,-293c4,-27 18,-70 32,-97c19,-33 438,-459 1428,-1448c1541,-1540 1432,-1439 1557,-1437c117,1 16,-93 1549,1438c1146,1144 1418,1420 1437,1461c64,135 2,302 -136,364c-61,28 -159,28 -220,0c-35,-15 -327,-302 -1337,-1312l-1293,-1292l-1287,1287c-935,934 -1300,1292 -1333,1309c-48,24 -156,35 -200,20z" id="svg_13"/>
   </g>
  </symbol>
 </defs>
 <g class="layer">
  <title>Layer 1</title>
  <line fill="none" id="svg_3" stroke="#000000" stroke-width="5" x1="1500" x2="1220" y1="1070" y2="920"/>
  <use id="svg_7" transform="matrix(0.246533 0 0 0.246533 0 0)" xlink:href="#svg_6"/>
  <use id="svg_9" transform="matrix(1 0 0 1 0 0) matrix(0.246533 0 0 0.246533 0 0)" x="2352.63" xlink:href="#svg_8" y="-2352.63"/>
 </g>
</svg>